<mxfile host="app.diagrams.net" modified="2023-11-19T22:41:27.747Z" agent="Mozilla/5.0 (Macintosh; Intel Mac OS X 10.15; rv:109.0) Gecko/20100101 Firefox/119.0" etag="looi0lr7s7pCl1c9tR9s" version="21.3.2" type="device">
  <diagram name="Page-1" id="h3ejrtiKPqcqL7NYXR60">
    <mxGraphModel dx="1026" dy="577" grid="1" gridSize="10" guides="1" tooltips="1" connect="1" arrows="1" fold="1" page="1" pageScale="1" pageWidth="850" pageHeight="1100" math="0" shadow="0">
      <root>
        <mxCell id="0" />
        <mxCell id="1" parent="0" />
        <mxCell id="XwqDze1guCfP3kkD8KMQ-1" value="AWS Cloud" style="sketch=0;outlineConnect=0;gradientColor=none;html=1;whiteSpace=wrap;fontSize=12;fontStyle=0;shape=mxgraph.aws4.group;grIcon=mxgraph.aws4.group_aws_cloud;strokeColor=#AAB7B8;fillColor=none;verticalAlign=top;align=left;spacingLeft=30;fontColor=#AAB7B8;dashed=0;" vertex="1" parent="1">
          <mxGeometry x="200" y="40" width="560" height="390" as="geometry" />
        </mxCell>
        <mxCell id="XwqDze1guCfP3kkD8KMQ-15" style="edgeStyle=orthogonalEdgeStyle;rounded=0;orthogonalLoop=1;jettySize=auto;html=1;exitX=0.5;exitY=1;exitDx=0;exitDy=0;exitPerimeter=0;startArrow=classic;startFill=1;" edge="1" parent="1" source="XwqDze1guCfP3kkD8KMQ-2" target="XwqDze1guCfP3kkD8KMQ-4">
          <mxGeometry relative="1" as="geometry" />
        </mxCell>
        <mxCell id="XwqDze1guCfP3kkD8KMQ-20" style="edgeStyle=orthogonalEdgeStyle;rounded=0;orthogonalLoop=1;jettySize=auto;html=1;exitX=1;exitY=0.5;exitDx=0;exitDy=0;exitPerimeter=0;startArrow=classic;startFill=1;" edge="1" parent="1" source="XwqDze1guCfP3kkD8KMQ-2" target="XwqDze1guCfP3kkD8KMQ-18">
          <mxGeometry relative="1" as="geometry" />
        </mxCell>
        <mxCell id="XwqDze1guCfP3kkD8KMQ-2" value="" style="sketch=0;points=[[0,0,0],[0.25,0,0],[0.5,0,0],[0.75,0,0],[1,0,0],[0,1,0],[0.25,1,0],[0.5,1,0],[0.75,1,0],[1,1,0],[0,0.25,0],[0,0.5,0],[0,0.75,0],[1,0.25,0],[1,0.5,0],[1,0.75,0]];outlineConnect=0;fontColor=#232F3E;gradientColor=#945DF2;gradientDirection=north;fillColor=#5A30B5;strokeColor=#ffffff;dashed=0;verticalLabelPosition=bottom;verticalAlign=top;align=center;html=1;fontSize=12;fontStyle=0;aspect=fixed;shape=mxgraph.aws4.resourceIcon;resIcon=mxgraph.aws4.api_gateway;" vertex="1" parent="1">
          <mxGeometry x="240" y="120" width="60" height="60" as="geometry" />
        </mxCell>
        <mxCell id="XwqDze1guCfP3kkD8KMQ-17" style="edgeStyle=orthogonalEdgeStyle;rounded=0;orthogonalLoop=1;jettySize=auto;html=1;exitX=1;exitY=0.5;exitDx=0;exitDy=0;exitPerimeter=0;entryX=0;entryY=0.5;entryDx=0;entryDy=0;entryPerimeter=0;startArrow=classic;startFill=1;" edge="1" parent="1" source="XwqDze1guCfP3kkD8KMQ-3" target="XwqDze1guCfP3kkD8KMQ-2">
          <mxGeometry relative="1" as="geometry" />
        </mxCell>
        <mxCell id="XwqDze1guCfP3kkD8KMQ-3" value="" style="outlineConnect=0;dashed=0;verticalLabelPosition=bottom;verticalAlign=top;align=center;html=1;shape=mxgraph.aws3.mobile_client;fillColor=#D2D3D3;gradientColor=none;" vertex="1" parent="1">
          <mxGeometry x="80" y="118.5" width="40.5" height="63" as="geometry" />
        </mxCell>
        <mxCell id="XwqDze1guCfP3kkD8KMQ-16" style="edgeStyle=orthogonalEdgeStyle;rounded=0;orthogonalLoop=1;jettySize=auto;html=1;exitX=0;exitY=0.5;exitDx=0;exitDy=0;exitPerimeter=0;entryX=0.5;entryY=1;entryDx=0;entryDy=0;entryPerimeter=0;startArrow=classic;startFill=1;" edge="1" parent="1" source="XwqDze1guCfP3kkD8KMQ-4" target="XwqDze1guCfP3kkD8KMQ-3">
          <mxGeometry relative="1" as="geometry" />
        </mxCell>
        <mxCell id="XwqDze1guCfP3kkD8KMQ-4" value="" style="sketch=0;points=[[0,0,0],[0.25,0,0],[0.5,0,0],[0.75,0,0],[1,0,0],[0,1,0],[0.25,1,0],[0.5,1,0],[0.75,1,0],[1,1,0],[0,0.25,0],[0,0.5,0],[0,0.75,0],[1,0.25,0],[1,0.5,0],[1,0.75,0]];outlineConnect=0;fontColor=#232F3E;gradientColor=#F54749;gradientDirection=north;fillColor=#C7131F;strokeColor=#ffffff;dashed=0;verticalLabelPosition=bottom;verticalAlign=top;align=center;html=1;fontSize=12;fontStyle=0;aspect=fixed;shape=mxgraph.aws4.resourceIcon;resIcon=mxgraph.aws4.cognito;" vertex="1" parent="1">
          <mxGeometry x="240" y="290" width="60" height="60" as="geometry" />
        </mxCell>
        <mxCell id="XwqDze1guCfP3kkD8KMQ-14" style="edgeStyle=orthogonalEdgeStyle;rounded=0;orthogonalLoop=1;jettySize=auto;html=1;exitX=0.5;exitY=0;exitDx=0;exitDy=0;startArrow=classic;startFill=1;" edge="1" parent="1" source="XwqDze1guCfP3kkD8KMQ-13" target="XwqDze1guCfP3kkD8KMQ-4">
          <mxGeometry relative="1" as="geometry" />
        </mxCell>
        <mxCell id="XwqDze1guCfP3kkD8KMQ-13" value="Google OAuth" style="rounded=1;whiteSpace=wrap;html=1;" vertex="1" parent="1">
          <mxGeometry x="210" y="490" width="120" height="60" as="geometry" />
        </mxCell>
        <mxCell id="XwqDze1guCfP3kkD8KMQ-21" style="edgeStyle=orthogonalEdgeStyle;rounded=0;orthogonalLoop=1;jettySize=auto;html=1;exitX=1;exitY=0.5;exitDx=0;exitDy=0;exitPerimeter=0;startArrow=classic;startFill=1;" edge="1" parent="1" source="XwqDze1guCfP3kkD8KMQ-18" target="XwqDze1guCfP3kkD8KMQ-19">
          <mxGeometry relative="1" as="geometry" />
        </mxCell>
        <mxCell id="XwqDze1guCfP3kkD8KMQ-18" value="" style="outlineConnect=0;dashed=0;verticalLabelPosition=bottom;verticalAlign=top;align=center;html=1;shape=mxgraph.aws3.lambda_function;fillColor=#F58534;gradientColor=none;" vertex="1" parent="1">
          <mxGeometry x="410" y="114" width="69" height="72" as="geometry" />
        </mxCell>
        <mxCell id="XwqDze1guCfP3kkD8KMQ-19" value="" style="outlineConnect=0;dashed=0;verticalLabelPosition=bottom;verticalAlign=top;align=center;html=1;shape=mxgraph.aws3.dynamo_db;fillColor=#2E73B8;gradientColor=none;" vertex="1" parent="1">
          <mxGeometry x="580" y="110" width="72" height="81" as="geometry" />
        </mxCell>
      </root>
    </mxGraphModel>
  </diagram>
</mxfile>
